# xmcd
#
# Track frame offsets:
#	150
#	19590
#	36567
#	53295
#
# Disc length: 1013 seconds
#
# Revision: 0
# Processed by: cddbd v1.4PL0 Copyright (c) Steve Scherf et al.
# Submitted via: audiograbber 1.81.03
#
DISCID=2603f304
DTITLE=The Red Devils - Blackwater Roll
DYEAR=1993
DGENRE=Blues
TTITLE0=Balckwater Roll
TTITLE1=Mr Highway Man
TTITLE2=The Backstreet Crawler
TTITLE3=The Hook
EXTD=
EXTT0=
EXTT1=
EXTT2=
EXTT3=
PLAYORDER=
